<svg xmlns="http://www.w3.org/2000/svg" viewBox="0 0 256.65 99.5"><defs><style>.cls-1{fill:#123979;}.cls-2{opacity:0.3;}.cls-3{fill:none;}.cls-4,.cls-5{fill:#fff;}.cls-5,.cls-6{opacity:0.2;}</style></defs><title>EPLogoRecurso 1</title><g id="Capa_2" data-name="Capa 2"><g id="Capa_1-2" data-name="Capa 1"><ellipse class="cls-1" cx="128.11" cy="50.01" rx="128.11" ry="49.48"/><polyline class="cls-2" points="74.5 46.57 67.8 78.05 123.23 78.05 125.57 66.83 87.39 66.83 88.39 58.8 128.08 58.63 130.26 46.57 74.5 46.57"/><path class="cls-2" d="M169.37,57.46H145.5l-4,20.59h-13.4l6.2-31.65,12.46-.09,21.68-.18,4.86,0c2,0,3.69-.07,5.07-1.76a8.35,8.35,0,0,0,1.55-3.49c.23-1,.28-2.25-.53-2.89a2.89,2.89,0,0,0-1.67-.45c-3.89-.22-8,.2-11.95.22l-15.33.08-20.28.11L108.79,38l-18.56.09-11.89.07H76l2.68-13.06H186.19c3.79,0,8.61-.73,10.64,3.35a11.65,11.65,0,0,1,.74,5.93c-.14,2.49-.38,5-.7,7.46-.43,3.4-1.08,6.91-3,9.74-3.5,5.1-9.44,5.65-15,5.86Z"/><ellipse class="cls-3" cx="128.11" cy="50.01" rx="128.11" ry="49.48"/><path class="cls-4" d="M167.37,55.46H143.5l-4,20.59h-13.4l6.2-31.65,12.46-.09,21.68-.18,4.86,0c2,0,3.69-.07,5.07-1.76a8.35,8.35,0,0,0,1.55-3.49c.23-1,.28-2.25-.53-2.89a2.89,2.89,0,0,0-1.67-.45c-3.89-.22-8,.2-11.95.22l-15.33.08-20.28.11L106.79,36l-18.56.09-11.89.07H74l2.68-13.06H184.19c3.79,0,8.61-.73,10.64,3.35a11.65,11.65,0,0,1,.74,5.93c-.14,2.49-.38,5-.7,7.46-.43,3.4-1.08,6.91-3,9.74-3.5,5.1-9.44,5.65-15,5.86Z"/><polyline class="cls-4" points="72.5 44.57 65.8 76.05 121.23 76.05 123.57 64.83 85.39 64.83 86.39 56.8 126.08 56.63 128.26 44.57 72.5 44.57"/><ellipse class="cls-3" cx="128.11" cy="50.01" rx="128.11" ry="49.48"/><path class="cls-5" d="M13.45,55.46c0,10.72,8.82,20.64,23.81,28.74C14.48,75.28.42,63,.42,49.48.42,22.15,57.78,0,128.53,0c43,0,81,8.18,104.28,20.73C209.58,11.63,177.27,6,141.55,6,70.8,6,13.45,28.13,13.45,55.46Z"/><path class="cls-6" d="M256.65,49.48C256.65,76.81,199.3,99,128.55,99c-36.49,0-69.41-5.89-92.74-15.34C58.39,91.3,88,96,120.51,96c70.75,0,128.11-22.15,128.11-49.48,0-13.21-13.4-25.22-35.24-34.09C239.92,21.47,256.65,34.72,256.65,49.48Z"/></g></g></svg>